<mxfile host="65bd71144e">
    <diagram id="a6K-KFRUgI2gVxKOYiXz" name="Page-1">
        <mxGraphModel dx="1296" dy="667" grid="0" gridSize="10" guides="1" tooltips="1" connect="1" arrows="1" fold="1" page="0" pageScale="1" pageWidth="850" pageHeight="1100" math="0" shadow="0">
            <root>
                <mxCell id="0"/>
                <mxCell id="1" parent="0"/>
                <mxCell id="47" value="main frame" style="swimlane;startSize=20;horizontal=1;containerType=tree;newEdgeStyle={&quot;edgeStyle&quot;:&quot;elbowEdgeStyle&quot;,&quot;startArrow&quot;:&quot;none&quot;,&quot;endArrow&quot;:&quot;none&quot;};" vertex="1" parent="1">
                    <mxGeometry x="-2" y="41" width="835" height="828" as="geometry"/>
                </mxCell>
                <mxCell id="48" value="" style="edgeStyle=elbowEdgeStyle;elbow=vertical;sourcePerimeterSpacing=0;targetPerimeterSpacing=0;startArrow=none;endArrow=none;rounded=0;curved=0;" edge="1" parent="47" source="50" target="51">
                    <mxGeometry relative="1" as="geometry"/>
                </mxCell>
                <mxCell id="49" value="" style="edgeStyle=elbowEdgeStyle;elbow=vertical;sourcePerimeterSpacing=0;targetPerimeterSpacing=0;startArrow=none;endArrow=none;rounded=0;curved=0;" edge="1" parent="47" source="50" target="52">
                    <mxGeometry relative="1" as="geometry"/>
                </mxCell>
                <UserObject label="Landing page&amp;nbsp;" treeRoot="1" id="50">
                    <mxCell style="whiteSpace=wrap;html=1;align=center;treeFolding=1;treeMoving=1;newEdgeStyle={&quot;edgeStyle&quot;:&quot;elbowEdgeStyle&quot;,&quot;startArrow&quot;:&quot;none&quot;,&quot;endArrow&quot;:&quot;none&quot;};" vertex="1" parent="47">
                        <mxGeometry x="365" y="39" width="120" height="60" as="geometry"/>
                    </mxCell>
                </UserObject>
                <mxCell id="51" value="Book Apointment&amp;nbsp;" style="whiteSpace=wrap;html=1;align=center;verticalAlign=middle;treeFolding=1;treeMoving=1;newEdgeStyle={&quot;edgeStyle&quot;:&quot;elbowEdgeStyle&quot;,&quot;startArrow&quot;:&quot;none&quot;,&quot;endArrow&quot;:&quot;none&quot;};" vertex="1" parent="47">
                    <mxGeometry x="250" y="138" width="100" height="60" as="geometry"/>
                </mxCell>
                <mxCell id="52" value="Admins Login" style="whiteSpace=wrap;html=1;align=center;verticalAlign=middle;treeFolding=1;treeMoving=1;newEdgeStyle={&quot;edgeStyle&quot;:&quot;elbowEdgeStyle&quot;,&quot;startArrow&quot;:&quot;none&quot;,&quot;endArrow&quot;:&quot;none&quot;};" vertex="1" parent="47">
                    <mxGeometry x="508" y="140" width="100" height="60" as="geometry"/>
                </mxCell>
                <mxCell id="53" value="" style="edgeStyle=elbowEdgeStyle;elbow=vertical;sourcePerimeterSpacing=0;targetPerimeterSpacing=0;startArrow=none;endArrow=none;rounded=0;curved=0;" edge="1" target="54" source="50" parent="47">
                    <mxGeometry relative="1" as="geometry">
                        <mxPoint x="421" y="127" as="sourcePoint"/>
                    </mxGeometry>
                </mxCell>
                <mxCell id="54" value="Staffs Login" style="whiteSpace=wrap;html=1;align=center;verticalAlign=middle;treeFolding=1;treeMoving=1;newEdgeStyle={&quot;edgeStyle&quot;:&quot;elbowEdgeStyle&quot;,&quot;startArrow&quot;:&quot;none&quot;,&quot;endArrow&quot;:&quot;none&quot;};" vertex="1" parent="47">
                    <mxGeometry x="375" y="140" width="100" height="60" as="geometry"/>
                </mxCell>
                <mxCell id="55" value="Contains" style="swimlane;fontStyle=0;childLayout=stackLayout;horizontal=1;startSize=26;fillColor=none;horizontalStack=0;resizeParent=1;resizeParentMax=0;resizeLast=0;collapsible=1;marginBottom=0;html=1;" vertex="1" parent="47">
                    <mxGeometry x="82" y="225" width="140" height="104" as="geometry"/>
                </mxCell>
                <mxCell id="56" value="Patient Details" style="text;strokeColor=none;fillColor=none;align=left;verticalAlign=top;spacingLeft=4;spacingRight=4;overflow=hidden;rotatable=0;points=[[0,0.5],[1,0.5]];portConstraint=eastwest;whiteSpace=wrap;html=1;" vertex="1" parent="55">
                    <mxGeometry y="26" width="140" height="26" as="geometry"/>
                </mxCell>
                <mxCell id="57" value="Concern Docter" style="text;strokeColor=none;fillColor=none;align=left;verticalAlign=top;spacingLeft=4;spacingRight=4;overflow=hidden;rotatable=0;points=[[0,0.5],[1,0.5]];portConstraint=eastwest;whiteSpace=wrap;html=1;" vertex="1" parent="55">
                    <mxGeometry y="52" width="140" height="26" as="geometry"/>
                </mxCell>
                <mxCell id="58" value="Date of apointment&amp;nbsp;" style="text;strokeColor=none;fillColor=none;align=left;verticalAlign=top;spacingLeft=4;spacingRight=4;overflow=hidden;rotatable=0;points=[[0,0.5],[1,0.5]];portConstraint=eastwest;whiteSpace=wrap;html=1;" vertex="1" parent="55">
                    <mxGeometry y="78" width="140" height="26" as="geometry"/>
                </mxCell>
                <mxCell id="59" value="" style="edgeStyle=none;html=1;exitX=0.636;exitY=-0.014;exitDx=0;exitDy=0;exitPerimeter=0;" edge="1" parent="47" source="55" target="51">
                    <mxGeometry relative="1" as="geometry"/>
                </mxCell>
                <mxCell id="67" value="" style="edgeStyle=none;html=1;exitX=0.41;exitY=1.031;exitDx=0;exitDy=0;exitPerimeter=0;" edge="1" source="54" target="68" parent="47">
                    <mxGeometry relative="1" as="geometry"/>
                </mxCell>
                <mxCell id="68" value="Contains" style="swimlane;fontStyle=0;childLayout=stackLayout;horizontal=1;startSize=26;fillColor=none;horizontalStack=0;resizeParent=1;resizeParentMax=0;resizeLast=0;collapsible=1;marginBottom=0;html=1;" vertex="1" parent="47">
                    <mxGeometry x="347.5" y="238" width="140" height="78" as="geometry"/>
                </mxCell>
                <mxCell id="70" value="Docter Side" style="text;strokeColor=none;fillColor=none;align=left;verticalAlign=top;spacingLeft=4;spacingRight=4;overflow=hidden;rotatable=0;points=[[0,0.5],[1,0.5]];portConstraint=eastwest;whiteSpace=wrap;html=1;" vertex="1" parent="68">
                    <mxGeometry y="26" width="140" height="26" as="geometry"/>
                </mxCell>
                <mxCell id="71" value="Recepitionist side" style="text;strokeColor=none;fillColor=none;align=left;verticalAlign=top;spacingLeft=4;spacingRight=4;overflow=hidden;rotatable=0;points=[[0,0.5],[1,0.5]];portConstraint=eastwest;whiteSpace=wrap;html=1;" vertex="1" parent="68">
                    <mxGeometry y="52" width="140" height="26" as="geometry"/>
                </mxCell>
                <mxCell id="72" value="" style="edgeStyle=none;html=1;exitX=0.5;exitY=1;exitDx=0;exitDy=0;" edge="1" target="73" source="52" parent="47">
                    <mxGeometry relative="1" as="geometry">
                        <mxPoint x="414" y="242.86" as="sourcePoint"/>
                    </mxGeometry>
                </mxCell>
                <mxCell id="73" value="Contains" style="swimlane;fontStyle=0;childLayout=stackLayout;horizontal=1;startSize=26;fillColor=none;horizontalStack=0;resizeParent=1;resizeParentMax=0;resizeLast=0;collapsible=1;marginBottom=0;html=1;" vertex="1" parent="47">
                    <mxGeometry x="599" y="234" width="140" height="175" as="geometry"/>
                </mxCell>
                <mxCell id="74" value="=&amp;gt; Dashbord&amp;nbsp;&lt;br&gt;=&amp;gt; Patient Details&amp;nbsp;&lt;br&gt;=&amp;gt; Doctors and staff (Employee) Details&lt;br&gt;=&amp;gt; Reporting&lt;br&gt;=&amp;gt; Mediacla records&amp;nbsp;&lt;br&gt;=&amp;gt; Laboratry&lt;br&gt;=&amp;gt; New Ppatients&lt;br&gt;=&amp;gt; new Staff" style="text;strokeColor=none;fillColor=none;align=left;verticalAlign=top;spacingLeft=4;spacingRight=4;overflow=hidden;rotatable=0;points=[[0,0.5],[1,0.5]];portConstraint=eastwest;whiteSpace=wrap;html=1;" vertex="1" parent="73">
                    <mxGeometry y="26" width="140" height="149" as="geometry"/>
                </mxCell>
                <mxCell id="84" value="" style="edgeStyle=none;html=1;exitX=0.41;exitY=1.031;exitDx=0;exitDy=0;exitPerimeter=0;" edge="1" target="85" source="68" parent="47">
                    <mxGeometry relative="1" as="geometry">
                        <mxPoint x="414" y="242.86" as="sourcePoint"/>
                    </mxGeometry>
                </mxCell>
                <mxCell id="85" value="Doctors Side" style="swimlane;fontStyle=0;childLayout=stackLayout;horizontal=1;startSize=26;fillColor=none;horizontalStack=0;resizeParent=1;resizeParentMax=0;resizeLast=0;collapsible=1;marginBottom=0;html=1;" vertex="1" parent="47">
                    <mxGeometry x="207.5" y="421" width="140" height="171" as="geometry"/>
                </mxCell>
                <mxCell id="87" value="=&amp;gt; Assigned patients&amp;nbsp;&lt;br&gt;=&amp;gt; Patient delails&amp;nbsp;&lt;br&gt;=&amp;gt; Labroratory tests&lt;br&gt;=&amp;gt; Apointments of the Day&amp;nbsp;&lt;br&gt;=&amp;gt; Transfer Apointment&amp;nbsp;&lt;br&gt;=&amp;gt; Reports&lt;br&gt;=&amp;gt; Request for a leaves&lt;br&gt;=&amp;gt; Notice" style="text;strokeColor=none;fillColor=none;align=left;verticalAlign=top;spacingLeft=4;spacingRight=4;overflow=hidden;rotatable=0;points=[[0,0.5],[1,0.5]];portConstraint=eastwest;whiteSpace=wrap;html=1;" vertex="1" parent="85">
                    <mxGeometry y="26" width="140" height="145" as="geometry"/>
                </mxCell>
                <mxCell id="88" value="" style="edgeStyle=none;html=1;exitX=0.41;exitY=1.031;exitDx=0;exitDy=0;exitPerimeter=0;" edge="1" target="89" source="68" parent="47">
                    <mxGeometry relative="1" as="geometry">
                        <mxPoint x="414" y="242.86" as="sourcePoint"/>
                    </mxGeometry>
                </mxCell>
                <mxCell id="89" value="Recepitonist side" style="swimlane;fontStyle=0;childLayout=stackLayout;horizontal=1;startSize=26;fillColor=none;horizontalStack=0;resizeParent=1;resizeParentMax=0;resizeLast=0;collapsible=1;marginBottom=0;html=1;" vertex="1" parent="47">
                    <mxGeometry x="485" y="419" width="140" height="175" as="geometry"/>
                </mxCell>
                <mxCell id="90" value="=&amp;gt; Register New Patients&lt;br&gt;=&amp;gt; Doctors Available&lt;br&gt;=&amp;gt; Admit Patient List&amp;nbsp;&lt;br&gt;=&amp;gt; Beds Empty&amp;nbsp;&lt;br&gt;=&amp;gt; Beds Ocupied&lt;br&gt;=&amp;gt; Total Paients&lt;br&gt;=&amp;gt; Booked Apointments&lt;br&gt;=&amp;gt; Notices&amp;nbsp;&lt;br&gt;" style="text;strokeColor=none;fillColor=none;align=left;verticalAlign=top;spacingLeft=4;spacingRight=4;overflow=hidden;rotatable=0;points=[[0,0.5],[1,0.5]];portConstraint=eastwest;whiteSpace=wrap;html=1;" vertex="1" parent="89">
                    <mxGeometry y="26" width="140" height="149" as="geometry"/>
                </mxCell>
            </root>
        </mxGraphModel>
    </diagram>
</mxfile>